<svg width="112" height="32" viewBox="0 0 112 32" fill="none" xmlns="http://www.w3.org/2000/svg">
<g clip-path="url(#clip0_1817_640)">
<path d="M84.9459 0H68.3559C67.2455 0 66.3453 0.900194 66.3453 2.01064V29.9894C66.3453 31.0998 67.2455 32 68.3559 32H84.9459C86.0563 32 86.9565 31.0998 86.9565 29.9894V2.01064C86.9565 0.900194 86.0563 0 84.9459 0Z" fill="white"/>
<path d="M84.262 0.812988H69.0369C67.9994 0.812988 67.1583 1.65405 67.1583 2.69154V29.3083C67.1583 30.3458 67.9994 31.1869 69.0369 31.1869H84.262C85.2995 31.1869 86.1405 30.3458 86.1405 29.3083V2.69154C86.1405 1.65405 85.2995 0.812988 84.262 0.812988Z" fill="#31A6DE"/>
<path d="M83.8892 4.24731H69.2306V26.2352H83.8892V4.24731Z" fill="#0B6FB8"/>
<path d="M102.035 18.5154C101.577 18.5154 101.204 18.1427 101.204 17.6848C101.204 13.5637 97.8521 10.2116 93.7311 10.2116C93.2732 10.2116 92.9004 9.83886 92.9004 9.38097C92.9004 8.92307 93.2732 8.55029 93.7311 8.55029C98.7679 8.55029 102.866 12.6479 102.866 17.6848C102.866 18.1427 102.493 18.5154 102.035 18.5154Z" fill="#31A6DE"/>
<path d="M106.188 18.5155C105.73 18.5155 105.358 18.1427 105.358 17.6848C105.358 11.2742 100.142 6.05832 93.7311 6.05832C93.2732 6.05832 92.9004 5.68554 92.9004 5.22765C92.9004 4.76975 93.2732 4.39697 93.7311 4.39697C101.057 4.39697 107.019 10.3584 107.019 17.6848C107.019 18.1427 106.646 18.5155 106.188 18.5155Z" fill="#31A6DE"/>
<path d="M110.342 18.5155C109.884 18.5155 109.511 18.1428 109.511 17.6849C109.511 8.9848 102.431 1.905 93.7311 1.905C93.2732 1.905 92.9004 1.53222 92.9004 1.07433C92.9004 0.616428 93.2732 0.243652 93.7311 0.243652C103.347 0.243652 111.172 8.06607 111.172 17.6849C111.172 18.1428 110.799 18.5155 110.342 18.5155Z" fill="#31A6DE"/>
<path d="M98.8032 24.1423L97.3179 23.2852C97.494 22.6307 97.585 21.9585 97.585 21.2746C97.585 20.5907 97.497 19.9185 97.3179 19.2639L98.8032 18.4069C99.2053 18.175 99.3433 17.6613 99.1114 17.2592L97.9637 15.272C97.8081 15.002 97.5263 14.8523 97.2357 14.8523C97.0919 14.8523 96.9481 14.8875 96.816 14.9638L95.3278 15.8209C94.3651 14.8552 93.1616 14.1596 91.8496 13.8103V12.0961C91.8496 11.6323 91.4739 11.2566 91.0101 11.2566H88.7147C88.251 11.2566 87.8753 11.6323 87.8753 12.0961V13.8103C86.5603 14.1596 85.3598 14.8552 84.397 15.8209L83.7366 15.4393C83.8745 15.2867 83.9538 15.0871 83.9538 14.8787V12.8915C83.9538 12.4278 83.5781 12.0521 83.1143 12.0521H81.6936C81.5087 11.5765 81.2534 11.1304 80.9334 10.7341L81.6408 9.5072C81.8727 9.10507 81.7347 8.5914 81.3326 8.35952L79.6096 7.36447C79.4805 7.29109 79.3366 7.25293 79.1899 7.25293C79.1165 7.25293 79.0431 7.26174 78.9727 7.28229C78.7584 7.34099 78.5735 7.48188 78.4619 7.67267L77.7545 8.89961C77.5051 8.86145 77.2526 8.84384 77.0002 8.84384C76.7478 8.84384 76.4865 8.86438 76.2312 8.90254L75.5208 7.67267C75.4093 7.47895 75.2273 7.33806 75.0101 7.27935C74.9397 7.26174 74.8663 7.25 74.7929 7.25C74.6461 7.25 74.5023 7.28816 74.3732 7.36154L72.6502 8.35659C72.248 8.58847 72.1101 9.10214 72.342 9.50427L73.0494 10.7312C72.8909 10.9308 72.747 11.1421 72.6179 11.3623C72.4917 11.5824 72.3801 11.8143 72.2862 12.0521H70.8685C70.4047 12.0521 70.029 12.4278 70.029 12.8915V14.8787C70.029 15.3425 70.4047 15.7182 70.8685 15.7182H72.2891C72.474 16.1937 72.7294 16.6398 73.0494 17.0361L72.342 18.263C72.1101 18.6652 72.248 19.1788 72.6502 19.4107L74.3732 20.4057C74.5052 20.4821 74.6491 20.5173 74.7929 20.5173C75.0835 20.5173 75.3653 20.3676 75.5208 20.0976L76.2312 18.8706C76.4806 18.9088 76.7331 18.9264 76.9855 18.9264C77.2379 18.9264 77.4992 18.9058 77.7545 18.8677L78.4649 20.0976C78.6204 20.3676 78.9022 20.5173 79.1928 20.5173C79.3337 20.5173 79.4805 20.4821 79.6126 20.4057L81.3355 19.4107C81.5293 19.2992 81.6702 19.1142 81.7259 18.9C81.7259 18.8882 81.7289 18.8794 81.7318 18.8677L82.4069 19.2581C82.2308 19.9097 82.1398 20.5848 82.1398 21.2687C82.1398 21.9526 82.2279 22.6248 82.4069 23.2794L80.9217 24.1364C80.7279 24.248 80.5871 24.4329 80.5313 24.6472C80.4726 24.8614 80.5049 25.0904 80.6164 25.2841L81.7641 27.2713C81.9197 27.5413 82.2014 27.691 82.492 27.691C82.6359 27.691 82.7797 27.6558 82.9118 27.5795L84.3999 26.7195C85.3656 27.6852 86.5661 28.3808 87.8782 28.7301V30.4443C87.8782 30.908 88.2539 31.2838 88.7177 31.2838H91.013C91.4768 31.2838 91.8525 30.908 91.8525 30.4443V28.7301C93.1675 28.3808 94.368 27.6852 95.3308 26.7195L96.8189 27.5795C96.951 27.6558 97.0949 27.691 97.2387 27.691C97.5293 27.691 97.8111 27.5413 97.9666 27.2713L99.1143 25.2841C99.2258 25.0904 99.2552 24.8614 99.1994 24.6472C99.1407 24.4329 98.9998 24.248 98.809 24.1364L98.8032 24.1423ZM77.9219 14.4237C77.7311 14.7554 77.373 14.9609 76.9914 14.9609C76.8065 14.9609 76.6215 14.911 76.4601 14.8171C75.9494 14.5206 75.7733 13.866 76.0668 13.3524C76.2576 13.0236 76.6127 12.8182 76.9973 12.8182C77.1822 12.8182 77.3671 12.8681 77.5315 12.962C78.0422 13.2584 78.2183 13.913 77.9248 14.4237H77.9219ZM92.7742 21.9233C92.7419 22.0671 92.6979 22.208 92.645 22.3489C92.645 22.3548 92.6392 22.3636 92.6362 22.3694C92.5834 22.5015 92.5188 22.6365 92.4454 22.7657C92.4454 22.7686 92.4396 22.7745 92.4396 22.7774C92.4043 22.8361 92.3691 22.8919 92.331 22.9477C92.328 22.9535 92.3221 22.9594 92.3192 22.9653C92.2811 23.021 92.237 23.0798 92.193 23.1355C92.1871 23.1414 92.1842 23.1473 92.1783 23.1531C92.1372 23.203 92.0932 23.2529 92.0433 23.3087C92.0433 23.3087 92.0316 23.3204 92.0257 23.3263C91.9699 23.385 91.923 23.429 91.8789 23.4731C91.559 23.7695 91.1715 23.9926 90.7577 24.1218C90.7019 24.1394 90.6373 24.157 90.5669 24.1746C90.5493 24.1775 90.5317 24.1834 90.514 24.1863C90.4377 24.204 90.379 24.2157 90.3262 24.2216C90.3203 24.2216 90.3174 24.2216 90.3115 24.2216C90.2587 24.2304 90.197 24.2362 90.1207 24.2421H90.0679C89.9857 24.2509 89.9211 24.2539 89.8595 24.2539C89.7978 24.2539 89.7333 24.2539 89.6482 24.245H89.6041C89.5249 24.2362 89.4632 24.2274 89.4075 24.2186C89.4016 24.2186 89.3986 24.2186 89.3928 24.2186C89.3399 24.2098 89.2812 24.201 89.2049 24.1834C89.1873 24.1805 89.1697 24.1746 89.1521 24.1717C89.0816 24.1541 89.02 24.1364 88.9642 24.1188C88.5533 23.9897 88.1658 23.7637 87.843 23.4701C87.7989 23.429 87.752 23.3821 87.6933 23.3234C87.6874 23.3175 87.6786 23.3058 87.6786 23.3058C87.6258 23.25 87.5817 23.1972 87.5436 23.1502C87.5377 23.1443 87.5348 23.1385 87.5289 23.1326C87.4819 23.0739 87.4379 23.0152 87.3998 22.9623C87.3998 22.9623 87.3939 22.9565 87.3939 22.9506C87.3587 22.8978 87.3205 22.8391 87.2853 22.7774L87.2765 22.7628C87.2031 22.6336 87.1385 22.5015 87.0857 22.3694C87.0857 22.3665 87.0828 22.3606 87.0798 22.3577C87.024 22.2168 86.98 22.07 86.9477 21.9203C86.9008 21.7061 86.8773 21.4889 86.8773 21.2716C86.8773 21.0544 86.9008 20.8372 86.9477 20.623C86.98 20.4791 87.024 20.3324 87.0798 20.1915C87.0798 20.1856 87.0827 20.1827 87.0857 20.1768C87.1385 20.0447 87.2002 19.9126 87.2735 19.7864C87.2765 19.7805 87.2823 19.7747 87.2853 19.7688C87.3205 19.7072 87.3616 19.6455 87.3998 19.5868C87.3998 19.5868 87.3997 19.5839 87.4027 19.5809C87.4408 19.5281 87.4819 19.4694 87.5318 19.4107C87.5318 19.4107 87.5377 19.4048 87.5406 19.399C87.5817 19.3491 87.6287 19.2962 87.6815 19.2375C87.6845 19.2317 87.6933 19.2258 87.6933 19.2228C87.7461 19.1671 87.796 19.1172 87.843 19.0732C88.1629 18.7796 88.5504 18.5536 88.9672 18.4245C89.0229 18.4069 89.0846 18.3892 89.155 18.3716L89.1991 18.3628C89.2754 18.3452 89.3399 18.3335 89.3957 18.3247C89.3987 18.3247 89.4045 18.3247 89.4075 18.3247C89.4632 18.3159 89.5249 18.31 89.6012 18.3041H89.6511C89.7362 18.2953 89.8008 18.2924 89.8566 18.2924C89.9123 18.2924 89.9769 18.2924 90.062 18.3012H90.1119C90.1853 18.31 90.2499 18.3188 90.3027 18.3276C90.3056 18.3276 90.3115 18.3276 90.3144 18.3276C90.3732 18.3364 90.4377 18.3481 90.517 18.3687L90.5493 18.3775C90.6285 18.3951 90.6902 18.4127 90.7459 18.4303C91.1598 18.5595 91.5473 18.7855 91.8672 19.079C91.9142 19.1201 91.9611 19.17 92.0198 19.2317L92.0316 19.2434C92.0785 19.2933 92.1255 19.3461 92.1666 19.399C92.1725 19.4048 92.1754 19.4107 92.1813 19.4166C92.2282 19.4723 92.2693 19.5281 92.3075 19.5839C92.3075 19.5868 92.3133 19.5898 92.3133 19.5927C92.3515 19.6485 92.3897 19.7101 92.4249 19.7717C92.4249 19.7717 92.4308 19.7805 92.4337 19.7835C92.5071 19.9126 92.5716 20.0447 92.6245 20.1797C92.6245 20.1797 92.6274 20.1885 92.6303 20.1915C92.6861 20.3324 92.7302 20.4791 92.7624 20.623C92.8094 20.8372 92.8329 21.0544 92.8329 21.2716C92.8329 21.4889 92.8094 21.7061 92.7624 21.9203L92.7742 21.9233Z" fill="white"/>
<path d="M97.2358 15.6948L95.1635 16.8924C94.1332 15.6478 92.6715 14.7731 91.0101 14.4913V12.0991H88.7148V14.4913C87.0534 14.7702 85.5917 15.6478 84.5614 16.8924L82.4891 15.6948L81.3414 17.682L83.4108 18.8766C83.1319 19.6251 82.9793 20.4323 82.9793 21.2747C82.9793 22.1171 83.1319 22.9272 83.4108 23.6757L81.3414 24.8704L82.4891 26.8575L84.5614 25.6599C85.5946 26.9045 87.0534 27.7792 88.7148 28.061V30.4532H91.0101V28.061C92.6715 27.7821 94.1332 26.9045 95.1635 25.6599L97.2358 26.8575L98.3834 24.8704L96.3141 23.6757C96.5929 22.9272 96.7456 22.12 96.7456 21.2747C96.7456 20.4293 96.5929 19.6221 96.3141 18.8766L98.3834 17.682L97.2358 15.6948ZM87.2794 18.4598C87.6874 18.0841 88.1776 17.7994 88.7177 17.6291C88.7999 17.6027 88.885 17.5822 88.9672 17.5616C88.9848 17.5587 89.0024 17.5528 89.0171 17.5499C89.1022 17.5323 89.1873 17.5146 89.2725 17.5C89.3576 17.4853 89.4456 17.4765 89.5337 17.4706C89.5542 17.4706 89.5748 17.4706 89.5953 17.4647C89.6834 17.4589 89.7714 17.4559 89.8595 17.4559C89.9476 17.4559 90.0356 17.4618 90.1237 17.4647C90.1442 17.4647 90.1648 17.4677 90.1853 17.4706C90.2734 17.4794 90.3614 17.4882 90.4466 17.5C90.5317 17.5146 90.6168 17.5293 90.7019 17.5499C90.7195 17.5528 90.7371 17.5587 90.7518 17.5616C90.8369 17.5822 90.9191 17.6056 91.0042 17.6291C91.5443 17.7994 92.0345 18.087 92.4425 18.4598C92.51 18.5214 92.5717 18.5831 92.6333 18.6506C92.6392 18.6594 92.648 18.6653 92.6539 18.6741C92.7155 18.7386 92.7742 18.8061 92.83 18.8766C92.8329 18.8825 92.8388 18.8883 92.8417 18.8913C92.8975 18.9617 92.9532 19.0351 93.0031 19.1085C93.0031 19.1085 93.0031 19.1114 93.0061 19.1143C93.0589 19.1907 93.1088 19.2699 93.1558 19.3492C93.1587 19.355 93.1616 19.3609 93.1646 19.3668C93.2585 19.5282 93.3407 19.7014 93.4111 19.8775C93.4111 19.8775 93.4111 19.8834 93.4141 19.8863C93.4845 20.0683 93.5432 20.2532 93.5843 20.4469C93.643 20.7141 93.6753 20.9929 93.6753 21.2776C93.6753 21.5623 93.643 21.8412 93.5843 22.1083C93.5403 22.302 93.4845 22.4869 93.4141 22.6689C93.4141 22.6719 93.4141 22.6748 93.4111 22.6777C93.3407 22.8538 93.2585 23.0241 93.1646 23.1885C93.1646 23.1943 93.1587 23.2002 93.1558 23.2061C93.1088 23.2853 93.0589 23.3646 93.0061 23.4438C93.0061 23.4438 93.0061 23.4438 93.0031 23.4468C92.9503 23.5201 92.8975 23.5935 92.8417 23.6669C92.8388 23.6728 92.8329 23.6757 92.83 23.6816C92.7742 23.752 92.7126 23.8195 92.6539 23.887C92.648 23.8929 92.6392 23.9017 92.6333 23.9076C92.5717 23.9722 92.5071 24.0367 92.4396 24.0984C92.0316 24.4741 91.5414 24.7588 91.0013 24.9291C90.9191 24.9555 90.834 24.979 90.7489 24.9995C90.7313 25.0024 90.7137 25.0083 90.699 25.0112C90.6139 25.0289 90.5287 25.0465 90.4436 25.0611C90.3585 25.0758 90.2704 25.0846 90.1824 25.0905C90.1618 25.0905 90.1413 25.0905 90.1207 25.0934C90.0327 25.0993 89.9446 25.1052 89.8566 25.1052C89.7685 25.1052 89.6805 25.1022 89.5924 25.0934C89.5719 25.0934 89.5513 25.0934 89.5308 25.0905C89.4427 25.0817 89.3576 25.0729 89.2695 25.0611C89.1844 25.0494 89.0993 25.0318 89.0142 25.0112C88.9965 25.0083 88.9789 25.0024 88.9643 24.9995C88.8791 24.979 88.7969 24.9555 88.7148 24.9291C88.1747 24.7588 87.6845 24.4712 87.2765 24.0984C87.209 24.0367 87.1473 23.9722 87.0828 23.9076C87.0769 23.9017 87.0681 23.8929 87.0622 23.887C87.0006 23.8195 86.9419 23.752 86.8832 23.6816C86.8802 23.6757 86.8773 23.6728 86.8714 23.6669C86.8157 23.5965 86.7599 23.5231 86.7071 23.4468C86.7071 23.4468 86.7071 23.4468 86.7071 23.4438C86.6542 23.3675 86.6043 23.2883 86.5574 23.2061C86.5544 23.2002 86.5515 23.1943 86.5485 23.1914C86.4546 23.027 86.3724 22.8568 86.302 22.6807C86.302 22.6807 86.302 22.6748 86.2991 22.6719C86.2286 22.4899 86.1699 22.305 86.1288 22.1112C86.0701 21.8441 86.0378 21.5653 86.0378 21.2806C86.0378 20.9958 86.0701 20.717 86.1288 20.4499C86.1728 20.2591 86.2286 20.0712 86.2991 19.8893C86.2991 19.8863 86.2991 19.8834 86.302 19.8804C86.3724 19.7043 86.4546 19.5341 86.5485 19.3697C86.5515 19.3638 86.5544 19.358 86.5574 19.3521C86.6043 19.2729 86.6542 19.1936 86.7071 19.1173C86.7071 19.1173 86.7071 19.1173 86.7071 19.1143C86.7599 19.038 86.8127 18.9676 86.8714 18.8971C86.8744 18.8913 86.8802 18.8854 86.8832 18.8825C86.9389 18.812 87.0006 18.7445 87.0622 18.677C87.0681 18.6711 87.0769 18.6623 87.0828 18.6564C87.1444 18.5919 87.209 18.5273 87.2765 18.4657L87.2794 18.4598Z" fill="#595757"/>
<path d="M81.0802 14.8817H83.1114V12.8946H81.0772C80.8894 12.1256 80.4873 11.4094 79.8973 10.8458L80.9129 9.08758L79.1899 8.09253L78.1743 9.85075C77.3906 9.6218 76.5716 9.6306 75.8114 9.85075L74.7929 8.0896L73.0699 9.08465L74.0855 10.8458C73.8037 11.1158 73.5513 11.4299 73.3458 11.7851C73.1403 12.1402 72.9936 12.513 72.9026 12.8946H70.8714V14.8817H72.9055C73.0934 15.6508 73.4955 16.367 74.0855 16.9305L73.0699 18.6888L74.7929 19.6838L75.8085 17.9256C76.5922 18.1545 77.4111 18.1457 78.1713 17.9256L79.1869 19.6867L80.9099 18.6917L79.8943 16.9305C80.1761 16.6605 80.4285 16.3464 80.634 15.9913C80.8395 15.6361 80.9862 15.2633 81.0772 14.8817H81.0802ZM78.6498 14.8436C78.1214 15.7565 76.9503 16.0705 76.0374 15.5451C75.1246 15.0168 74.8105 13.8456 75.3388 12.9327C75.8642 12.0199 77.0383 11.7058 77.9512 12.2342C78.8641 12.7625 79.1781 13.9337 78.6498 14.8465V14.8436Z" fill="#595757"/>
<path d="M4.85489 0.733887C6.48689 0.733887 7.59347 0.980447 8.17759 1.47357C8.7617 1.96669 9.05229 2.86194 9.05229 4.15638C9.05229 5.18078 8.90259 5.94394 8.60613 6.4488C8.30674 6.95366 7.81068 7.29415 7.11209 7.47027C7.90754 7.6317 8.44763 7.91349 8.73822 8.31562C9.02587 8.71481 9.17263 9.48678 9.17263 10.6315C9.17263 10.7049 9.16676 10.8164 9.15796 10.9661C9.14915 11.1158 9.14328 11.2274 9.14328 11.3008C9.14328 11.9084 9.17263 12.4308 9.2284 12.8682C9.28417 13.3055 9.37516 13.6988 9.49551 14.054H6.59843C6.47221 13.6196 6.40177 12.742 6.39002 11.4182C6.38415 10.9661 6.37828 10.6168 6.37241 10.3703C6.3548 9.70692 6.23152 9.24315 6.00257 8.97017C5.77362 8.70013 5.39204 8.56511 4.85489 8.56511H3.6896V14.054H0.901123V0.733887H4.85489ZM3.6896 6.48403H4.37645C5.122 6.48403 5.64154 6.34313 5.93506 6.05841C6.22565 5.77663 6.37241 5.28058 6.37241 4.57905C6.37241 3.87753 6.24033 3.43431 5.97616 3.18481C5.71198 2.93532 5.19538 2.8091 4.43222 2.8091H3.69254V6.48403H3.6896Z" fill="#231F20"/>
<path d="M15.7681 10.6138H18.3599C18.3599 11.829 18.0459 12.7418 17.4177 13.3494C16.7896 13.957 15.8444 14.2623 14.5882 14.2623C13.1499 14.2623 12.149 13.9042 11.5854 13.188C11.0218 12.4718 10.7401 11.1451 10.7401 9.20486C10.7401 7.53765 11.0394 6.343 11.6324 5.62387C12.2282 4.90474 13.2115 4.5437 14.5852 4.5437C15.862 4.5437 16.8101 4.8519 17.4295 5.4683C18.0488 6.0847 18.3599 7.02398 18.3599 8.28026V9.68918H13.4023V10.6461C13.4023 11.3447 13.4933 11.8525 13.6782 12.1665C13.8631 12.4835 14.1596 12.642 14.5676 12.642C14.9756 12.642 15.2574 12.4835 15.4599 12.1665C15.6654 11.8495 15.7681 11.3887 15.7681 10.7811V10.6108V10.6138ZM13.4023 8.23036H15.7329V7.45253C15.7329 7.01224 15.6331 6.67175 15.4306 6.42813C15.228 6.1845 14.9463 6.06122 14.5852 6.06122C14.1948 6.06122 13.8984 6.21679 13.7017 6.52499C13.5021 6.83612 13.4023 7.29696 13.4023 7.91042V8.22743V8.23036Z" fill="#231F20"/>
<path d="M22.4751 5.72953C22.6865 5.34502 22.9682 5.05149 23.3205 4.84896C23.6727 4.64643 24.0836 4.54663 24.5533 4.54663C25.155 4.54663 25.6598 4.66991 26.0708 4.91647C26.4788 5.16303 26.7694 5.51526 26.9367 5.97316C27.1774 5.49765 27.4826 5.14249 27.8495 4.9018C28.2164 4.66404 28.6479 4.54663 29.141 4.54663C29.9541 4.54663 30.5764 4.75503 31.0049 5.17477C31.4364 5.59451 31.6507 6.19917 31.6507 6.99462V14.0568H29.0412V7.71963C29.0412 7.10616 28.9767 6.68936 28.8505 6.46921C28.7242 6.24907 28.5041 6.14047 28.19 6.14047C27.8525 6.14047 27.5795 6.26081 27.374 6.5015C27.1656 6.74219 27.0629 7.06213 27.0629 7.45839V14.0597H24.4535V7.72256C24.4535 7.12084 24.3889 6.70697 24.2597 6.48095C24.1306 6.25494 23.9046 6.1434 23.5876 6.1434C23.25 6.1434 22.98 6.26375 22.7804 6.49857C22.5778 6.73632 22.478 7.05626 22.478 7.46133V14.0627H19.8686V6.4428C19.8686 6.01425 19.8627 5.6855 19.851 5.45362C19.8393 5.22174 19.8187 4.99866 19.7894 4.78145H22.4076L22.481 5.73834L22.4751 5.72953Z" fill="#231F20"/>
<path d="M37.1014 4.54663C38.4428 4.54663 39.4085 4.90767 39.9956 5.6268C40.5826 6.34593 40.8762 7.54058 40.8762 9.20779C40.8762 11.1509 40.5973 12.4806 40.0367 13.1939C39.476 13.9071 38.481 14.2652 37.0486 14.2652C35.6162 14.2652 34.6094 13.9071 34.0458 13.1909C33.4823 12.4747 33.2005 11.148 33.2005 9.20779C33.2005 7.52884 33.5028 6.33126 34.1046 5.61799C34.7063 4.90473 35.7072 4.54957 37.1014 4.54957V4.54663ZM35.8275 9.32227C35.8275 10.6285 35.9156 11.509 36.0946 11.964C36.2708 12.4189 36.5907 12.645 37.0486 12.645C37.5065 12.645 37.8235 12.4189 38.0026 11.964C38.1787 11.509 38.2697 10.6285 38.2697 9.32227C38.2697 8.01609 38.1816 7.19715 38.0026 6.78916C37.8264 6.38409 37.5006 6.17862 37.031 6.17862C36.5614 6.17862 36.259 6.38409 36.0888 6.79209C35.9185 7.20302 35.8305 8.04544 35.8305 9.31933L35.8275 9.32227Z" fill="#231F20"/>
<path d="M46.9404 13.9981C46.55 14.048 46.1919 14.0833 45.869 14.1068C45.5462 14.1302 45.282 14.142 45.0707 14.142C44.2635 14.142 43.6705 13.9453 43.2919 13.5549C42.9133 13.1645 42.7225 12.5481 42.7225 11.7028V6.34011H41.5043V4.76975H42.7225V3.1994L45.2791 2.07227V4.77269H46.9404V6.34304H45.2791V11.3711C45.2791 11.8466 45.3436 12.1548 45.4698 12.2928C45.5961 12.4307 45.8514 12.5012 46.2389 12.5012C46.3416 12.5012 46.5324 12.4924 46.8171 12.4748C46.8788 12.4689 46.9199 12.466 46.9433 12.466V14.0011L46.9404 13.9981Z" fill="#231F20"/>
<path d="M52.7727 10.6138H55.3645C55.3645 11.829 55.0504 12.7418 54.4223 13.3494C53.7942 13.957 52.849 14.2623 51.5927 14.2623C50.1545 14.2623 49.1535 13.9042 48.59 13.188C48.0264 12.4718 47.7446 11.1451 47.7446 9.20486C47.7446 7.53765 48.044 6.343 48.6369 5.62387C49.2328 4.90474 50.2161 4.5437 51.5898 4.5437C52.8666 4.5437 53.8147 4.8519 54.434 5.4683C55.0534 6.0847 55.3645 7.02398 55.3645 8.28026V9.68918H50.4069V10.6461C50.4069 11.3447 50.4979 11.8525 50.6828 12.1665C50.8677 12.4835 51.1642 12.642 51.5722 12.642C51.9802 12.642 52.262 12.4835 52.4645 12.1665C52.67 11.8495 52.7727 11.3887 52.7727 10.7811V10.6108V10.6138ZM50.4069 8.23036H52.7375V7.45253C52.7375 7.01224 52.6377 6.67175 52.4351 6.42813C52.2326 6.1845 51.9508 6.06122 51.5898 6.06122C51.1994 6.06122 50.9029 6.21679 50.7063 6.52499C50.5067 6.83612 50.4069 7.29696 50.4069 7.91042V8.22743V8.23036Z" fill="#231F20"/>
<path d="M3.27573 31.3719V19.3551H0V16.9951H9.65694V19.3551H6.3636V31.3719H3.27279H3.27573Z" fill="#231F20"/>
<path d="M14.5764 27.6589H17.3737C17.3737 28.9709 17.0332 29.9572 16.3552 30.6117C15.6771 31.2692 14.6586 31.595 13.2996 31.595C11.7469 31.595 10.6667 31.2076 10.0591 30.4356C9.4515 29.6636 9.14917 28.2313 9.14917 26.1384C9.14917 24.3391 9.47205 23.0505 10.1149 22.2727C10.7577 21.4978 11.8202 21.1074 13.3025 21.1074C14.6792 21.1074 15.7036 21.4391 16.3728 22.1054C17.042 22.7717 17.3767 23.7844 17.3767 25.1404V26.6609H12.0257V27.6941C12.0257 28.4485 12.1255 28.9944 12.3222 29.3349C12.5188 29.6754 12.8417 29.8456 13.282 29.8456C13.7223 29.8456 14.0246 29.6754 14.2477 29.3349C14.4678 28.9944 14.5794 28.4954 14.5794 27.8379V27.653L14.5764 27.6589ZM12.0228 25.0847H14.5383V24.2452C14.5383 23.7697 14.4297 23.4028 14.2125 23.1386C13.9953 22.8744 13.69 22.7453 13.3025 22.7453C12.8799 22.7453 12.5629 22.9126 12.3486 23.2472C12.1343 23.5818 12.0257 24.0808 12.0257 24.7442V25.0847H12.0228Z" fill="#231F20"/>
<path d="M18.7063 28.0579H21.436V28.2634C21.436 28.7565 21.53 29.1498 21.7149 29.4375C21.8998 29.728 22.1493 29.8719 22.4604 29.8719C22.8362 29.8719 23.1414 29.7779 23.3704 29.5901C23.6023 29.4022 23.7167 29.1527 23.7167 28.8387C23.7167 28.3074 23.0827 27.7086 21.8176 27.0452C21.5329 26.9014 21.3098 26.7899 21.1543 26.7048C20.077 26.1206 19.4019 25.6451 19.1319 25.2782C18.8618 24.9113 18.7268 24.4475 18.7268 23.8899C18.7268 23.0504 19.0585 22.3723 19.7219 21.8528C20.3852 21.3333 21.2629 21.072 22.3518 21.072C23.5612 21.072 24.474 21.3039 25.0963 21.7647C25.7156 22.2256 26.0268 22.9007 26.0268 23.793C26.0268 23.8253 26.0238 23.8752 26.018 23.9427C26.0121 24.0102 26.0092 24.0689 26.0092 24.1129L23.3792 24.1041C23.385 24.066 23.3909 24.0219 23.3939 23.9779C23.3968 23.9339 23.3997 23.8693 23.3997 23.793C23.3997 23.3909 23.3146 23.0885 23.1473 22.8919C22.977 22.6952 22.7217 22.5954 22.3783 22.5954C22.0789 22.5954 21.8352 22.6776 21.6474 22.839C21.4595 23.0005 21.3656 23.2118 21.3656 23.473C21.3656 23.9016 21.9409 24.4211 23.0915 25.0317C23.5993 25.3046 24.0014 25.5277 24.3008 25.7038C25.1051 26.1852 25.6569 26.6314 25.9534 27.0452C26.2498 27.4591 26.3966 27.9552 26.3966 28.5422C26.3966 29.5314 26.0356 30.2711 25.3135 30.7701C24.5914 31.2691 23.523 31.5156 22.1082 31.5156C21.0104 31.5156 20.1651 31.2514 19.5751 30.726C18.9851 30.2006 18.6887 29.4463 18.6887 28.4659C18.6887 28.3632 18.6887 28.2839 18.6945 28.2281C18.6975 28.1724 18.7063 28.1195 18.718 28.0667L18.7063 28.0579Z" fill="#231F20"/>
<path d="M32.8982 31.3132C32.4755 31.366 32.091 31.4042 31.7446 31.4306C31.3983 31.457 31.1106 31.4687 30.8817 31.4687C30.0099 31.4687 29.37 31.2574 28.962 30.8347C28.554 30.4121 28.3486 29.7458 28.3486 28.8358V23.0475H27.0336V21.351H28.3486V19.6544L31.1077 18.4363V21.351H32.9011V23.0475H31.1077V28.4748C31.1077 28.9885 31.1752 29.3202 31.3132 29.4699C31.4482 29.6195 31.727 29.6929 32.1409 29.6929C32.2524 29.6929 32.4579 29.6841 32.7632 29.6636C32.8277 29.6577 32.8747 29.6548 32.8982 29.6548V31.3102V31.3132Z" fill="#231F20"/>
<path d="M34.5595 31.3719V16.998H37.5505V23.2442L41.2841 16.998H44.4219L40.2715 23.6053L44.4219 31.3719H40.9437L37.5535 24.3831V31.3719H34.5624H34.5595Z" fill="#231F20"/>
<path d="M48.2906 16.9951V19.3727H45.4728V16.9951H48.2906ZM48.2906 21.351V31.369H45.4728V21.351H48.2906Z" fill="#231F20"/>
<path d="M55.4907 31.3132C55.068 31.366 54.6835 31.4042 54.3372 31.4306C53.9908 31.457 53.7031 31.4687 53.4742 31.4687C52.6024 31.4687 51.9625 31.2574 51.5545 30.8347C51.1466 30.4121 50.9411 29.7458 50.9411 28.8358V23.0475H49.6261V21.351H50.9411V19.6544L53.7002 18.4363V21.351H55.4936V23.0475H53.7002V28.4748C53.7002 28.9885 53.7677 29.3202 53.9057 29.4699C54.0407 29.6195 54.3195 29.6929 54.7334 29.6929C54.845 29.6929 55.0504 29.6841 55.3557 29.6636C55.4203 29.6577 55.4672 29.6548 55.4907 29.6548V31.3102V31.3132Z" fill="#231F20"/>
</g>
<defs>
<clipPath id="clip0_1817_640">
<rect width="111.172" height="32" fill="white"/>
</clipPath>
</defs>
</svg>
